<svg width="576" height="512" viewBox="0 0 576 512" fill="none" xmlns="http://www.w3.org/2000/svg">
<g clip-path="url(#clip0_270_262)">
<path d="M0 64C0 28.7 28.7 0 64 0H224V128C224 145.7 238.3 160 256 160H384V285.7L297.2 372.5C286.9 382.8 279.7 395.6 276.2 409.7L257.5 484.6C255.2 493.8 255.7 503.4 258.8 512.1L64 512C28.7 512 0 483.3 0 448V64ZM384 128H256V0L384 128ZM549.8 235.7L564.2 250.1C579.8 265.7 579.8 291 564.2 306.7L534.8 336.1L463.8 265.1L493.2 235.7C508.8 220.1 534.1 220.1 549.8 235.7ZM311.9 417L441.1 287.8L512.1 358.8L382.9 487.9C378.8 492 373.7 494.9 368 496.3L307.9 511.3C302.4 512.7 296.7 511.1 292.7 507.1C288.7 503.1 287.1 497.4 288.5 491.9L303.5 431.8C304.9 426.2 307.8 421 311.9 416.9V417Z" fill="#CFCCCC"/>
</g>
<defs>
<clipPath id="clip0_270_262">
<rect width="576" height="512" fill="white"/>
</clipPath>
</defs>
</svg>
